<svg id="Layer_1" data-name="Layer 1" xmlns="http://www.w3.org/2000/svg" viewBox="0 0 80 80"><defs><style>.cls-1{fill:#dcdbda;}.cls-1,.cls-6,.cls-7,.cls-8{stroke:#010101;stroke-width:0.94px;}.cls-1,.cls-3,.cls-4,.cls-5,.cls-6{stroke-miterlimit:10;}.cls-2{fill:#a6a4a4;}.cls-3,.cls-4,.cls-5,.cls-6,.cls-7,.cls-8{fill:none;}.cls-3,.cls-4,.cls-5{stroke:#000;stroke-width:0.4px;}.cls-3,.cls-4,.cls-5,.cls-8{stroke-linecap:round;}.cls-3{stroke-dasharray:0.5;}.cls-5{stroke-dasharray:0.5 0.5;}.cls-7,.cls-8{stroke-linejoin:round;}</style></defs><path class="cls-1" d="M65.73,26.59c-1.39-1.27-5.11-.07-7,2.05-2.33,2.61-3.61,7.06-2.33,8.4a4.46,4.46,0,0,0,4.66.71,7.47,7.47,0,0,0,2.11-1.69,13.44,13.44,0,0,0,2.2-3.49C65.55,32.17,67.28,28,65.73,26.59Z"/><path class="cls-2" d="M14.51,26.77s-1.38,4.5-1.11,5.61.86,2.9,6,6.92c.16,5.11-.08,20.2-.08,22.09s.24,8.26-.16,9.59-.62,2.21-.62,2.21,11.44,4.42,27.33,3l6.16-1.72,3.78-2.19s0-1.93-1.43-1.53c-.49.13,0,1.54-.66,1.71C46.86,74.36,38.41,75.89,32,74.6,29,74,25.9,73.34,25.9,73.34l-3.36-1L20.7,71.24s.22-1.46.24-2.17.11-4.66.11-4.66l0-4.3.05-3.83.1-6.47,0-4.7L21.18,41l-.05-2.43-3.15-3s-2.91-2.83-3.2-3.35a9.88,9.88,0,0,1-.55-1.79Z"/><path class="cls-2" d="M58.09,37.91c0,.11,0,.87-1.53,1.33a3.58,3.58,0,0,1-2.75-.32l.12-4.79,1.4,2.4Z"/><path class="cls-3" d="M22,69.62a49.12,49.12,0,0,0,16.63,2.87,50.11,50.11,0,0,0,17-2.76"/><path class="cls-3" d="M22,70.27a49.12,49.12,0,0,0,16.63,2.87,50.11,50.11,0,0,0,17-2.76"/><path class="cls-4" d="M15.13,29l.14.2"/><path class="cls-5" d="M15.58,29.6a37.82,37.82,0,0,0,2.56,2.86c1,1,1.92,2,2.77,2.78"/><path class="cls-4" d="M21.11,35.4l.19.16"/><path class="cls-4" d="M14.87,29.64l.14.2"/><path class="cls-5" d="M15.32,30.24c.76,1,1.59,1.83,2.56,2.86s1.92,2,2.77,2.78"/><path class="cls-4" d="M20.85,36l.19.16"/><path class="cls-6" d="M45.19,4.17a12.16,12.16,0,0,1-2.64,2.06,12,12,0,0,1-4.07,1.36,10.75,10.75,0,0,1-3.43.14,5,5,0,0,1-2.36-.85,3.72,3.72,0,0,1-1.1-1.17,4.07,4.07,0,0,1-.47-1.44"/><path class="cls-7" d="M55.67,72.25l.44-.15h0s-.3-3.58-.46-5.37q-.57-6.8-1.11-13.6C54.06,47,54,42.31,54,39.06c0-1.45,0-3.07.05-3.78s0-1.45,0-1.8"/><path class="cls-8" d="M57.5,10.73a7.17,7.17,0,0,0-.58-.52C55.07,8.64,45.18,3.44,45.18,3.44a18.25,18.25,0,0,1-3.3,1.76A13.72,13.72,0,0,1,38,6.29a9,9,0,0,1-3.42-.16,5.39,5.39,0,0,1-1.76-.81,3.81,3.81,0,0,1-.69-.64,3.06,3.06,0,0,1-.56-1.24s-10.14,6.11-12,7.68c0,0,1.42,17.45,1.58,19.07s0,2.81.16,6.92.24,8.6.24,8.6q-.13,10.67-.25,21.34a27.68,27.68,0,0,1-.39,4.18,48.27,48.27,0,0,0,14.65,3.7,53.6,53.6,0,0,0,11.21-.33c2.68-.32,5.51-1.79,7.4-2.37"/><path class="cls-6" d="M56.27,37.28a51.55,51.55,0,0,1-4.15-7.6c-.66-1.86-.27-4.67-.14-6.15a26.33,26.33,0,0,1,2.87-9.62c1.2-2.58,1.89-3.23,2.49-3.19s1.17,1,1.48,1.69c1.81,3.74,5.32,10.64,7,14.09"/><path class="cls-6" d="M65.69,26.44c-1.43-1.29-5.22-.06-7.14,2.1-2.38,2.66-3.68,7.21-2.38,8.58a4.54,4.54,0,0,0,4.76.72,7.78,7.78,0,0,0,2.15-1.72,14.18,14.18,0,0,0,2.25-3.57C65.51,32.14,67.27,27.89,65.69,26.44Z"/><path class="cls-6" d="M19.59,11.12c-.8,2.54-2.27,6.53-2.83,8.85s-1.28,5.08-2.07,7.85a9.74,9.74,0,0,0-.12,3.09,3.38,3.38,0,0,0,.32,1.16c.66,1.27,6.53,6.65,6.53,6.65l-.16-.19"/><path class="cls-6" d="M31.53,3.71a4.77,4.77,0,0,0-.63,3.91,3.54,3.54,0,0,0,2.16,2.12c4,1.64,9.95-.27,11.58-4.28a6.15,6.15,0,0,0,.58-1.85"/><path class="cls-6" d="M30,4.4a5.1,5.1,0,0,0-.48,3.8A4.85,4.85,0,0,0,32.29,11c4.47,2.2,11.69,0,13.44-4.77A7.12,7.12,0,0,0,46.15,4"/><path class="cls-3" d="M54.28,32.39a9.33,9.33,0,0,1,1.37-4.27,9.57,9.57,0,0,1,2.61-2.75,11.93,11.93,0,0,1,5.69-2"/><path class="cls-3" d="M54.72,33.22a9.33,9.33,0,0,1,3.85-7.09,11.8,11.8,0,0,1,5.71-2"/><path class="cls-8" d="M51.09,73.42a41.73,41.73,0,0,1-9.23,1.76,40.37,40.37,0,0,1-8.66-.49,56.7,56.7,0,0,1-12-3.48s8.77,8.07,26.4,4.84c6.71-1.45,8.55-3.88,8.55-3.88-.21.06-.09-.1-.35,0"/><path class="cls-3" d="M53.14,32.53s-1.55,13.53,1.44,36.75"/><polyline class="cls-8" points="54.19 72.23 54.51 68.74 55.72 71.95"/></svg>