<svg id="Layer_1" data-name="Layer 1" xmlns="http://www.w3.org/2000/svg" viewBox="0 0 80 80"><defs><style>.cls-1{fill:none;stroke:#010101;stroke-miterlimit:10;stroke-width:0.94px;}</style></defs><line class="cls-1" x1="40.29" y1="51.59" x2="40.35" y2="53.86"/><path class="cls-1" d="M5.45,35.15c8.13-4.2,17.67-8.8,17.67-8.8a32.71,32.71,0,0,0,16.47,4.72,32.8,32.8,0,0,0,17.26-4.72s9.44,4.12,17.7,8"/><path class="cls-1" d="M22.68,28a33.39,33.39,0,0,0,16.55,4.86A32.41,32.41,0,0,0,57.15,28"/><path class="cls-1" d="M59.15,27.36A40.84,40.84,0,0,1,50.4,45.77a40.61,40.61,0,0,1-10,8.09c-3.45-1.55-9.65-4.47-13.88-11.15a45.86,45.86,0,0,1-4.33-8.92,36,36,0,0,1-1.46-6.26"/><path class="cls-1" d="M57.49,26.7c-.63,2.83-3.74,11.75-8.24,17.18a33.58,33.58,0,0,1-9,7.71,32.69,32.69,0,0,1-12.56-11A50.19,50.19,0,0,1,22.39,26.7"/></svg>