<svg id="Layer_1" data-name="Layer 1" xmlns="http://www.w3.org/2000/svg" viewBox="0 0 80 80"><defs><style>.cls-1{fill:none;stroke:#010101;stroke-miterlimit:10;stroke-width:0.94px;}</style></defs><path class="cls-1" d="M5.23,39.05c8.12-4.16,17.12-8.52,17.12-8.52A33.62,33.62,0,0,0,39.3,35.39a33.51,33.51,0,0,0,17.76-4.86s9.34,4.09,17.71,8"/><path class="cls-1" d="M21.6,32.33a35.76,35.76,0,0,0,17.33,4.93A35.72,35.72,0,0,0,58,32.09"/><path class="cls-1" d="M19.56,31.89a11.76,11.76,0,0,0,.13,2.46c1.2,7.59,10.23,15.06,20.06,15.11s19-7.25,20.2-14.85A11.62,11.62,0,0,0,60,31.85"/><path class="cls-1" d="M21.86,30.74a7.39,7.39,0,0,0-.27,2.16,10.71,10.71,0,0,0,.4,2.69c1.24,4.18,8.46,12,18.37,11.76A19.62,19.62,0,0,0,56.93,37.06a9.55,9.55,0,0,0,1.14-4.6,6.78,6.78,0,0,0-.21-1.59"/></svg>