<svg id="Layer_1" data-name="Layer 1" xmlns="http://www.w3.org/2000/svg" viewBox="0 0 80 80"><defs><style>.cls-1,.cls-2{fill:none;stroke:#010101;stroke-linejoin:round;stroke-width:1.5px;}.cls-1{stroke-linecap:round;}</style></defs><path class="cls-1" d="M36.52,75.59c-.16-7.06-.09-9.62-.12-13.88-.19-28.53.88-38.11,6.8-41.58A10.25,10.25,0,0,1,45,19.31"/><path class="cls-1" d="M22.29,4.14S42.1,16.48,45.64,19.86s4.74,8,5.41,10.43,3.7,17.46,3.7,17.46l3,15.08A63.81,63.81,0,0,1,49,66.54a64.21,64.21,0,0,1-10,2.52c-1.67-4.92-.89-2.43-2.56-7.35"/><path class="cls-2" d="M37.31,63.08c2.93-1.16,6-2.31,9.26-3.42,3.43-1.17,6.75-2.2,9.93-3.09"/></svg>