<svg id="Layer_1" data-name="Layer 1" xmlns="http://www.w3.org/2000/svg" viewBox="0 0 80 80"><defs><style>.cls-1,.cls-2,.cls-3,.cls-4{fill:none;stroke-linecap:round;}.cls-1{stroke:#010101;stroke-linejoin:round;stroke-width:1.5px;}.cls-2,.cls-3,.cls-4{stroke:#000;stroke-miterlimit:10;stroke-width:0.5px;}.cls-3{stroke-dasharray:0.99 0.99;}.cls-4{stroke-dasharray:0.99 0.99;}</style></defs><path class="cls-1" d="M36.58,75.72c-.15-7.07-.15-9.75-.18-14-.19-28.53.88-38.11,6.8-41.58A10.25,10.25,0,0,1,45,19.31"/><path class="cls-1" d="M22.29,4.14S42.1,16.48,45.64,19.86s4.74,8,5.41,10.43,3.7,17.46,3.7,17.46l3,15.08a70.39,70.39,0,0,1-8.35,3.5A69.61,69.61,0,0,1,39,69.06c-1.67-4.92-.89-2.43-2.56-7.35"/><path class="cls-2" d="M37.69,64.45l.49-.11"/><path class="cls-3" d="M39.14,64.12c2.71-.63,6.22-1.58,9-2.54a79.92,79.92,0,0,0,7.44-3"/><path class="cls-2" d="M56,58.39l.45-.21"/><path class="cls-2" d="M37.35,63.37l.49-.1"/><path class="cls-4" d="M38.81,63.05c2.71-.62,6.26-1.56,9-2.51a79.92,79.92,0,0,0,7.44-3"/><path class="cls-2" d="M55.76,57.35l.44-.21"/></svg>