<svg id="Layer_1" data-name="Layer 1" xmlns="http://www.w3.org/2000/svg" viewBox="0 0 80 80"><defs><style>.cls-1{fill:#a6a4a4;}.cls-2{fill:#818181;}.cls-3,.cls-4,.cls-5,.cls-6{fill:none;}.cls-3,.cls-5{stroke:#010101;stroke-width:0.94px;}.cls-3,.cls-4,.cls-6{stroke-miterlimit:10;}.cls-4{stroke:#000;}.cls-4,.cls-6{stroke-linecap:round;stroke-width:0.4px;stroke-dasharray:0.5;}.cls-5{stroke-linejoin:round;}.cls-6{stroke:#404343;}</style></defs><path class="cls-1" d="M18.87,66.43a5.47,5.47,0,0,1-4-.32c-1.44-.8-1.52-2.49-1.7-3.29-1-4.67-2.46-15.78-2.68-18.39-.25-2.9,4.39-28.5,4.88-29.77s1.38-3.16,2.25-1.49,5.32,19,5.32,19c.2,4.12.32,8.41.32,12.85,0,3.08-.06,6.08-.16,9-.3,3.21-.59,6.41-.89,9.62-.12,1.49-.31,3.1-.62,4.83s-.62,3.07-1,4.42a62.42,62.42,0,0,0,18,3.33A62.74,62.74,0,0,0,58.22,73.8L58,76.1a77.08,77.08,0,0,1-10.8,1.56A95.34,95.34,0,0,1,24.85,76a55.41,55.41,0,0,1-6.51-2.59c.31-1.55.68-3.16,1.1-4.83.54-2.09,1.13-4.07,1.73-5.91C20.41,63.93,19.9,66.17,18.87,66.43Z"/><path class="cls-1" d="M59.45,45.18c.17,2.81.49,3.7.81,7.2.59,6.46,1.65,12.38,2.64,18.07l.42,2.34a6.3,6.3,0,0,0,2.87.62,6.16,6.16,0,0,0,3.39-.62L63.22,22.44a20.32,20.32,0,0,0-2.79,4.47C57.49,33.38,59.28,42.37,59.45,45.18Z"/><path class="cls-2" d="M22.91,32.18c0,1.65-2.32,9.44-2.32,9.44s.95,13,1.5,17.51-1.68,5.86-4,6.1c-3.44.35-3.5-2.27-3.5-2.27s-2.07-13.54-2.48-17.37.54-10.12,1-12.72,4-20.3,4.11-21a3.79,3.79,0,0,1,.42-1q1.85,5.93,3.46,12.61c.4,1.7,1.1,3.56,1.45,5.2C22.76,29.92,22.68,31,22.91,32.18Z"/><path class="cls-2" d="M64.54,71.69l6.45.08s-1.8-24.59-2.19-33-1.56-19.87-2.73-23.49-1.53-3.89-1.53-3.89a49.52,49.52,0,0,0-5.62,21.29h0s1.21,8.68,3.07,22.2Z"/><path class="cls-3" d="M17.59,10.87s3.65,13.46,4.15,15.05A24.89,24.89,0,0,1,23,33.61c.16,4.16.19,11.8.19,11.8S23.15,54,23,56.34s-1.22,11.11-1.22,11.11a53.24,53.24,0,0,1-1.16,5.44,65.94,65.94,0,0,0,40.68,0,39.28,39.28,0,0,1-1-5.38c-.08-1.72-.9-13.82-.9-13.82L59,44a73.78,73.78,0,0,1-.14-9.68,62.38,62.38,0,0,1,1.09-9.44,54.63,54.63,0,0,1,4.61-13.41"/><path class="cls-4" d="M21.49,70.61a64.81,64.81,0,0,0,19.24,2.9,66.12,66.12,0,0,0,19.66-2.79"/><path class="cls-4" d="M21.49,71.39a64.81,64.81,0,0,0,19.24,2.9A66.12,66.12,0,0,0,60.39,71.5"/><path class="cls-3" d="M64.54,71.69l6.45.08s-1.8-24.59-2.19-33-1.56-19.87-2.73-23.49-1.53-3.89-1.53-3.89a49.52,49.52,0,0,0-5.62,21.29h0s1.21,8.68,3.07,22.2Z"/><path class="cls-5" d="M64.54,11.42C62.3,9.83,48.78,3.21,48.78,3.21a16.14,16.14,0,0,1-8.47,2.31,16.12,16.12,0,0,1-8.08-2.31S19.84,9.27,17.59,10.87a3.54,3.54,0,0,0-.42,1c-.14.68-3.7,18.37-4.11,21s-1.36,8.89-1,12.72S14.59,63,14.59,63s.06,2.61,3.5,2.26c2.32-.23,4.55-1.58,4-6.09s-1.5-17.51-1.5-17.51,2.32-7.8,2.32-9.44"/><path class="cls-5" d="M14.56,62.53A9.07,9.07,0,0,1,18.8,58a2.83,2.83,0,0,1,2.11-.26,2.42,2.42,0,0,1,1.2,1.39"/><line class="cls-6" x1="64.85" y1="69.57" x2="70.19" y2="69.57"/><line class="cls-6" x1="64.96" y1="70.19" x2="70.29" y2="70.19"/><path class="cls-6" d="M14.57,58.63a6,6,0,0,1,1.72-1.84,5.56,5.56,0,0,1,2.5-1.29,5.13,5.13,0,0,1,2.5.17"/><path class="cls-6" d="M14.83,59.54a6.08,6.08,0,0,1,1.63-1.92,5.73,5.73,0,0,1,2.44-1.4,4.88,4.88,0,0,1,2.51.06"/><path class="cls-3" d="M31.89,4.91a17.23,17.23,0,0,0,8.35,2.38A17.3,17.3,0,0,0,49.43,4.8"/><path class="cls-3" d="M30.34,4.05A5.67,5.67,0,0,0,30.4,5.3C31,9.15,35.6,13,40.58,13s9.67-3.68,10.26-7.54a5.75,5.75,0,0,0,0-1.4"/><path class="cls-5" d="M32,3.49a3.52,3.52,0,0,0-.13,1A5.2,5.2,0,0,0,32,5.83c.6,2,4.08,5.79,8.85,5.67a9.48,9.48,0,0,0,8-5,4.59,4.59,0,0,0,.54-2.21,3.18,3.18,0,0,0-.1-.77"/></svg>